<?xml version="1.0" standalone="no"?>
<!DOCTYPE svg PUBLIC "-//W3C//DTD SVG 20010904//EN"
 "http://www.w3.org/TR/2001/REC-SVG-20010904/DTD/svg10.dtd">
<svg version="1.0" xmlns="http://www.w3.org/2000/svg"
 width="403.000000pt" height="239.000000pt" viewBox="0 0 403.000000 239.000000"
 preserveAspectRatio="xMidYMid meet">

<g transform="translate(0.000000,239.000000) scale(0.100000,-0.100000)"
fill="#000000" stroke="none">
<path d="M803 1997 c-72 -177 -153 -371 -178 -432 -26 -60 -75 -180 -110 -265
-34 -85 -138 -339 -230 -565 -92 -226 -176 -429 -186 -452 -10 -23 -19 -47
-19 -53 0 -7 61 -10 197 -8 l197 3 18 35 c10 19 52 114 93 210 l74 175 299 3
298 2 13 -37 c23 -67 104 -186 181 -268 41 -44 80 -89 86 -100 8 -14 22 -20
50 -21 22 -1 63 -13 91 -28 29 -14 91 -38 140 -53 82 -25 100 -27 273 -27 159
0 196 3 265 22 112 31 279 115 367 184 l34 27 69 -34 c153 -75 358 -118 565
-118 144 1 229 17 383 76 81 30 170 85 164 101 -2 6 -23 68 -46 138 -24 71
-44 128 -47 128 -2 0 -25 -16 -51 -37 -110 -84 -242 -120 -394 -109 -158 12
-301 59 -399 131 l-49 36 20 57 c66 191 64 497 -4 697 -25 72 -71 168 -106
219 -24 36 -19 48 48 119 122 131 260 195 468 216 125 13 219 0 312 -44 41
-20 78 -32 81 -28 4 4 44 62 89 127 l81 119 -51 30 c-127 72 -272 107 -448
107 -329 0 -617 -109 -823 -312 l-70 -69 -66 27 c-122 48 -239 67 -397 61
-274 -9 -468 -89 -644 -264 -41 -40 -78 -70 -81 -66 -4 4 -58 139 -120 298
-62 160 -119 307 -127 328 l-15 37 -82 0 -81 0 -132 -323z m1440 -392 c92 -19
180 -68 253 -140 113 -112 161 -254 151 -449 -8 -171 -55 -282 -161 -385 -140
-134 -340 -182 -540 -131 -103 26 -171 67 -243 143 -102 110 -143 224 -143
397 0 127 19 210 66 301 111 210 363 318 617 264z m-1147 -242 l94 -237 0
-118 0 -118 -230 0 c-126 0 -230 3 -230 8 0 17 263 712 268 708 3 -3 47 -112
98 -243z"/>
</g>
</svg>
